<!-- Logo oficial IBK AI (IBKAI_LOGO_SVG.svg), viewBox recortado al contenido -->
<svg xmlns="http://www.w3.org/2000/svg" viewBox="40 60 1212 362" role="img" aria-label="IBK AI">
  <defs>
    <style>
      .cls-1 {
        fill: currentColor;
      }
    </style>
  </defs>
  <g>
    <path class="cls-1" d="M327.26,128.17l-91.46,17.51c6.19,5.17,23.34,17.54,23.34,17.54l-29.57,74.55,71.79-43.3,22.23,15.08,3.67-81.38ZM246.15,180.51c-3.81-2.31,0,0-11.97-7.15-17.44-10.41-30.62-24.55-51.94-12.71-13.35,7.41-26.69,16.98-39.7,25.11-20.57,12.86-42.18,25.35-62.28,38.74-10.82,7.21-14.76,18.88-11.64,31.5s15.13,16.95,24.66,23c21.32,13.53,42.99,26.89,64.5,40.33,8.24,5.15,16.89,11.55,25.24,16.21,11.38,6.35,21.48,5.26,32.42-1.12,21.95-12.82,43.91-27.75,65.44-41.3,11.52-7.25,24.58-14.35,35.6-22.06,11.32-7.93,15.12-22.58,9.6-35.2-1.84-4.2-5.14-8.04-8.85-10.69l-26.97-16.88-.74-.48-1.19.79-8.21,5.64s19.6,12.02,28.06,17.6c4.87,3.21,9.02,7.01,9.58,13.29.74,8.29-1.8,13.33-8.43,17.81-32.13,21.68-66.37,40.45-98.64,61.95-13.21,9.21-21.31,1.77-32.4-5.09-31.09-19.22-61.97-38.77-93.07-57.99-8.63-6.25-9.32-20.39-.94-27.12,28.67-18.3,57.55-36.23,86.4-54.18,13.53-8.42,23.6-19.76,40.02-9.86,5.21,3.15,10.39,6.52,15.53,9.72,5.06,3.16,16.02,10.26,16.02,10.26l3.92-10.13ZM101.4,291.18c-14.81,10.54-35.23,17.3-33.39,39.29,1.36,16.2,19.23,21.37,30.36,29.69,26.2,15.77,51.92,32.3,77.99,48.29,3.79,2.32,7.47,5.34,11.74,6.84,16.11,5.69,26.37-2.45,39.25-10.34,22.58-13.82,44.91-28.24,67.33-42.27,7.63-4.77,24.03-13.03,28.99-19.62,5.26-6.98,6.47-17.62,3.35-25.72-4.7-12.22-20.64-19.66-31.69-26.17l-80.21,50.09c-11.5,5.9-23.57,5.72-34.8-.65-9.96-5.65-19.91-12.81-29.7-18.9-16.06-9.99-49.23-30.54-49.23-30.54Z"/>
    <rect class="cls-1" x="172.89" y="71.86" width="14.68" height="14.67"/>
    <rect class="cls-1" x="206.32" y="87.14" width="14.68" height="14.67"/>
    <rect class="cls-1" x="211.98" y="113.14" width="14.68" height="14.67"/>
    <rect class="cls-1" x="186.94" y="115.18" width="14.68" height="14.67"/>
    <rect class="cls-1" x="223.19" y="66.81" width="14.68" height="14.67"/>
    <rect class="cls-1" x="253.19" y="76.71" width="14.68" height="14.67"/>
    <rect class="cls-1" x="214.13" y="142.15" width="14.68" height="14.67"/>
    <rect class="cls-1" x="238.75" y="108.45" width="14.68" height="14.67"/>
  </g>
  <g>
    <path class="cls-1" d="M438.17,343.95v-184.54h34.06v184.54h-34.06Z"/>
    <path class="cls-1" d="M666.27,246.8c2.46,1.23,5.41,3.04,8.84,5.41,3.43,2.38,6.64,5.41,9.64,9.11,2.99,3.7,5.54,8.01,7.66,12.94,2.11,4.93,3.17,10.56,3.17,16.9,0,7.22-1.37,14.04-4.09,20.46-2.73,6.43-6.47,12.01-11.22,16.76s-10.34,8.54-16.76,11.35c-6.43,2.82-13.25,4.22-20.46,4.22h-111.67v-184.54h106.66c6.86,0,13.37,1.32,19.54,3.96,6.16,2.64,11.48,6.2,15.97,10.69s8.05,9.81,10.69,15.97c2.64,6.16,3.96,12.67,3.96,19.54,0,4.75-.79,9.15-2.38,13.2-1.58,4.05-3.48,7.66-5.68,10.82-2.2,3.17-4.58,5.85-7.13,8.05-2.55,2.2-4.8,3.92-6.73,5.15ZM653.07,212.21c0-6.16-2.11-11.35-6.34-15.58s-9.42-6.34-15.58-6.34h-66.79v43.56h66.79c6.16,0,11.35-2.07,15.58-6.2,4.22-4.13,6.34-9.28,6.34-15.44ZM636.7,313.06c3.52,0,6.77-.66,9.77-1.98,2.99-1.32,5.59-3.08,7.79-5.28,2.2-2.2,3.96-4.84,5.28-7.92,1.32-3.08,1.98-6.29,1.98-9.64,0-6.86-2.42-12.67-7.26-17.42-4.84-4.75-10.69-7.13-17.56-7.13h-72.34v49.37h72.34Z"/>
    <path class="cls-1" d="M820.97,243.9l88.7,100.06h-42.5l-68.38-76.82-24.29,25.87v50.95h-34.06v-184.54h34.06v88.7l83.95-88.7h42.5l-79.99,84.48Z"/>
    <path class="cls-1" d="M1171.29,343.95h-34.32l-16.63-41.45h-90.02l-16.63,41.45h-34.58l73.92-184.54h44.62l73.66,184.54ZM1107.93,271.62l-32.74-81.58-32.47,81.58h65.21Z"/>
    <path class="cls-1" d="M1210.36,343.95v-184.54h34.06v184.54h-34.06Z"/>
  </g>
</svg>